<svg width="50" height="38" viewBox="0 0 50 38" fill="none" xmlns="http://www.w3.org/2000/svg">
<path d="M25 11.3889C19.458 11.3889 14.9853 14.7881 14.9853 19C14.9853 23.2119 19.458 26.6111 25 26.6111C30.542 26.6111 35.0146 23.2119 35.0146 19C35.0146 14.7881 30.542 11.3889 25 11.3889ZM25 23.9467C21.416 23.9467 18.4912 21.7238 18.4912 19C18.4912 16.2762 21.416 14.0533 25 14.0533C28.584 14.0533 31.5088 16.2762 31.5088 19C31.5088 21.7238 28.584 23.9467 25 23.9467ZM35.4248 9.30333C34.1308 9.30333 33.0859 10.0975 33.0859 11.0809C33.0859 12.0643 34.1308 12.8584 35.4248 12.8584C36.7187 12.8584 37.7637 12.068 37.7637 11.0809C37.764 10.8474 37.7038 10.6161 37.5864 10.4003C37.469 10.1845 37.2967 9.98842 37.0795 9.82331C36.8622 9.65819 36.6042 9.52727 36.3203 9.43804C36.0364 9.34882 35.732 9.30304 35.4248 9.30333ZM44.5215 19C44.5215 16.9516 44.5459 14.9217 44.3945 12.877C44.2432 10.502 43.5303 8.39415 41.2451 6.65743C38.9551 4.917 36.1865 4.37892 33.0615 4.26388C30.3662 4.14884 27.6953 4.16739 25.0049 4.16739C22.3096 4.16739 19.6387 4.14884 16.9482 4.26388C13.8232 4.37892 11.0498 4.92071 8.76464 6.65743C6.4746 8.39786 5.76659 10.502 5.61522 12.877C5.46385 14.9254 5.48827 16.9553 5.48827 19C5.48827 21.0447 5.46385 23.0783 5.61522 25.1231C5.76659 27.4981 6.47948 29.6059 8.76464 31.3426C11.0547 33.083 13.8232 33.6211 16.9482 33.7361C19.6435 33.8512 22.3144 33.8326 25.0049 33.8326C27.7002 33.8326 30.3711 33.8512 33.0615 33.7361C36.1865 33.6211 38.9599 33.0793 41.2451 31.3426C43.5351 29.6022 44.2432 27.4981 44.3945 25.1231C44.5508 23.0783 44.5215 21.0484 44.5215 19ZM40.2246 27.7504C39.8682 28.4258 39.4385 28.9305 38.75 29.45C38.0615 29.9732 37.4023 30.2998 36.5137 30.5707C33.9453 31.3463 27.8467 31.1719 25 31.1719C22.1533 31.1719 16.0498 31.3463 13.4814 30.5744C12.5928 30.3035 11.9287 29.977 11.2451 29.4537C10.5566 28.9305 10.1269 28.4295 9.7705 27.7541C8.75487 25.7984 8.98436 21.1635 8.98436 19C8.98436 16.8365 8.75487 12.1979 9.7705 10.2459C10.1269 9.57052 10.5566 9.06583 11.2451 8.5463C11.9336 8.02677 12.5928 7.6965 13.4814 7.4256C16.0498 6.65372 22.1533 6.82814 25 6.82814C27.8467 6.82814 33.9502 6.65372 36.5185 7.4256C37.4072 7.6965 38.0713 8.02306 38.7549 8.5463C39.4433 9.06954 39.873 9.57052 40.2295 10.2459C41.2451 12.1979 41.0156 16.8365 41.0156 19C41.0156 21.1635 41.2451 25.7984 40.2246 27.7504Z" fill="white"/>
</svg>
