<svg width="40" height="31" viewBox="0 0 40 31" fill="none" xmlns="http://www.w3.org/2000/svg">
<path d="M35 1.9375H4.99219C3.61719 1.9375 2.5 2.81543 2.5 3.89316V27.1068C2.5 28.1846 3.61719 29.0625 4.99219 29.0625H35C36.375 29.0625 37.5 28.1846 37.5 27.1068V3.89316C37.5 2.81543 36.375 1.9375 35 1.9375ZM13.0781 25.1875H7.89062V12.2426H13.0859V25.1875H13.0781ZM10.4844 10.4746C8.82031 10.4746 7.47656 9.42715 7.47656 8.14355C7.47656 6.85996 8.82031 5.8125 10.4844 5.8125C12.1406 5.8125 13.4922 6.85996 13.4922 8.14355C13.4922 9.4332 12.1484 10.4746 10.4844 10.4746ZM32.5234 25.1875H27.3359V18.8906C27.3359 17.3891 27.2969 15.4576 24.6406 15.4576C21.9375 15.4576 21.5234 17.0924 21.5234 18.7816V25.1875H16.3359V12.2426H21.3125V14.0105H21.3828C22.0781 12.9934 23.7734 11.9217 26.2969 11.9217C31.5469 11.9217 32.5234 14.6039 32.5234 18.0914V25.1875Z" fill="white"/>
</svg>
